<?xml version="1.0" ?><svg viewBox="0 0 128 128" xmlns="http://www.w3.org/2000/svg"><defs><style>.cls-1{fill:#f2f2f2;}.cls-2{fill:#4ec3c7;}.cls-3{fill:#a64d2c;}</style></defs><title/><g data-name="13 Tax" id="_13_Tax"><path class="cls-1" d="M95.3,104.4v-86a4,4,0,0,0-4-4h-64a4,4,0,0,0-4,4v86a6,6,0,0,0,6,6h72A6,6,0,0,1,95.3,104.4Z"/><path class="cls-2" d="M101.3,110.4a6,6,0,0,0,6-6v-26a4,4,0,0,0-4-4h-8v30A6,6,0,0,0,101.3,110.4Z"/><path class="cls-3" d="M66.53,45.19l5.17-7.75,5.17,7.75a1,1,0,0,0,1.66-1.11L72.9,35.63l5.63-8.45a1,1,0,0,0-1.66-1.11L71.7,33.83l-5.17-7.75a1,1,0,0,0-1.66,1.11l5.63,8.45-5.63,8.45A1,1,0,0,0,66.53,45.19Z"/><path class="cls-3" d="M50.65,44.95l2.77-8.32H58l2.77,8.32a1,1,0,0,0,1.9-.63l-6-18a1,1,0,0,0-1.9,0l-6,18A1,1,0,0,0,50.65,44.95ZM55.7,29.79l1.61,4.84H54.09Z"/><path class="cls-3" d="M35.7,27.63h5v17a1,1,0,0,0,2,0v-17h5a1,1,0,0,0,0-2h-12A1,1,0,0,0,35.7,27.63Z"/><path class="cls-3" d="M41.7,93.59a1,1,0,0,0,2,0,5,5,0,0,0-4-4.9v-.53a1,1,0,0,0-2,0v.53a5,5,0,0,0,0,9.8v5.92a3,3,0,0,1-2-2.82,1,1,0,0,0-2,0,5,5,0,0,0,4,4.9V107a1,1,0,0,0,2,0v-.53a5,5,0,0,0,0-9.8V90.78A3,3,0,0,1,41.7,93.59Zm-4-2.82v5.63A3,3,0,0,1,37.7,90.78Zm2,13.63V98.78A3,3,0,0,1,39.7,104.41Z"/><path class="cls-3" d="M78.7,60.59h-44a1,1,0,0,0,0,2h44A1,1,0,0,0,78.7,60.59Z"/><path class="cls-3" d="M78.7,68.59h-44a1,1,0,0,0,0,2h44A1,1,0,0,0,78.7,68.59Z"/><path class="cls-3" d="M78.7,92.59h-22a1,1,0,0,0,0,2h22A1,1,0,0,0,78.7,92.59Z"/><path class="cls-3" d="M78.7,100.59h-22a1,1,0,0,0,0,2h22A1,1,0,0,0,78.7,100.59Z"/><path class="cls-3" d="M78.7,76.59h-44a1,1,0,0,0,0,2h44A1,1,0,0,0,78.7,76.59Z"/><path class="cls-3" d="M78.7,52.59h-44a1,1,0,0,0,0,2h44A1,1,0,0,0,78.7,52.59Z"/><path class="cls-3" d="M100.7,76.6h-5a1,1,0,0,0,0,2h5a3,3,0,0,1,3,3v26a5,5,0,1,1-10,0v-86a5,5,0,0,0-5-5h-64a5,5,0,0,0-5,5v86a7,7,0,0,0,7,7h72a7,7,0,0,0,7-7v-26A5,5,0,0,0,100.7,76.6Zm-6.89,36H26.7a5,5,0,0,1-5-5v-86a3,3,0,0,1,3-3h64a3,3,0,0,1,3,3v86A7.05,7.05,0,0,0,93.81,112.6Z"/></g></svg>