<?xml version="1.0" ?><!DOCTYPE svg  PUBLIC '-//W3C//DTD SVG 1.1//EN'  'http://www.w3.org/Graphics/SVG/1.1/DTD/svg11.dtd'><svg height="512px" style="enable-background:new 0 0 512 512;" version="1.1" viewBox="0 0 512 512" width="512px" xml:space="preserve" xmlns="http://www.w3.org/2000/svg" xmlns:xlink="http://www.w3.org/1999/xlink"><g id="_x34_06_x2C_tax_x2C_box_x2C_burden_x2C_service"><g><polygon points="254.752,303.094 253.094,303.094 239.87,353.461 267.958,353.461   "/><path d="M257.694,74.785c-24.611,0-44.633,20.014-44.633,44.615c0,3.918,0.51,7.803,1.514,11.572h86.249    c0.996-3.752,1.505-7.637,1.505-11.572C302.329,94.799,282.307,74.785,257.694,74.785z"/><path d="M33.503,486.514h444.994V194.105H33.503V486.514z M315.064,271.689h19.8l23.972,51.223l23.972-51.223h19.801    l-34.683,66.906l38.836,74.357h-19.836l-28.09-57.816l-28.088,57.816h-19.8l38.779-74.357L315.064,271.689z M245.662,270.051    h16.522l41.313,142.902h-19.855l-11.549-43.773h-36.34l-11.567,43.773h-19.837L245.662,270.051z M105.238,271.689h85.085v15.684    h-33.08v125.58h-18.999v-125.58h-33.006V271.689z"/><path d="M397.738,24.83h-275.24L36.181,186.105h439.926L397.738,24.83z M349.69,138.973H162.31c-2.209,0-4-1.791-4-4s1.791-4,4-4    h44.033c-0.849-3.791-1.281-7.668-1.281-11.572c0-29.012,23.611-52.615,52.633-52.615c29.022,0,52.635,23.604,52.635,52.615    c0,3.916-0.428,7.793-1.27,11.572h40.631c2.209,0,4,1.791,4,4S351.899,138.973,349.69,138.973z"/></g></g><g id="Layer_1"/></svg>